<svg width="36" height="36" viewBox="0 0 36 36" fill="none" xmlns="http://www.w3.org/2000/svg">
	<path d="M14.385 6.885C14.7335 6.53447 15.1631 6.27547 15.6358 6.13102C16.1085 5.98656 16.6095 5.96113 17.0944 6.05699C17.5793 6.15285 18.033 6.36702 18.4151 6.68047C18.7973 6.99392 19.0961 7.39694 19.2849 7.85369C19.4738 8.31045 19.5469 8.80679 19.4977 9.2986C19.4485 9.79041 19.2786 10.2624 19.003 10.6727C18.7274 11.083 18.3547 11.4189 17.918 11.6505C17.4814 11.882 16.9943 12.0021 16.5 12H3M18.885 29.115C19.2335 29.4655 19.6631 29.7245 20.1358 29.869C20.6085 30.0134 21.1095 30.0389 21.5944 29.943C22.0793 29.8472 22.533 29.633 22.9151 29.3195C23.2973 29.0061 23.5961 28.6031 23.7849 28.1463C23.9738 27.6896 24.0469 27.1932 23.9977 26.7014C23.9485 26.2096 23.7786 25.7376 23.503 25.3273C23.2274 24.917 22.8547 24.5811 22.418 24.3496C21.9814 24.118 21.4943 23.9979 21 24H3M26.595 11.595C27.0313 11.1598 27.5681 10.8389 28.1579 10.6605C28.7477 10.4822 29.3724 10.4519 29.9767 10.5724C30.581 10.693 31.1463 10.9605 31.6226 11.3515C32.0989 11.7425 32.4715 12.2448 32.7075 12.814C32.9434 13.3833 33.0355 14.0019 32.9755 14.6152C32.9155 15.2285 32.7053 15.8175 32.3634 16.3302C32.0216 16.8429 31.5587 17.2635 31.0157 17.5547C30.4726 17.846 29.8662 17.9989 29.25 18H3" stroke="#0540F2" stroke-width="3" stroke-linecap="round" stroke-linejoin="round" />
</svg>
